# xmcd
#
# Track frame offsets:
#	150
#	16778
#	53752
#	72813
#	86512
#	102733
#	128438
#	148641
#
# Disc length: 2257 seconds
#
# Revision: 0
# Processed by: cddbd v1.5.2PL0 Copyright (c) Steve Scherf et al.
# Submitted via: EasyCDDAExtractor 9.0.0.1
#
DISCID=6208cf08
DTITLE=Charlie Daniels Band - Way Down Yonder
DYEAR=1974
DGENRE=Country
TTITLE0=I've Been Down
TTITLE1=Give This Fool Another Try
TTITLE2=Low Down Lady
TTITLE3=Land Of Opportunity
TTITLE4=Way Down Yonder
TTITLE5=Whiskey
TTITLE6=I'll Always Remember That Song
TTITLE7=Looking For Mary Jane
EXTD=
EXTT0=
EXTT1=
EXTT2=
EXTT3=
EXTT4=
EXTT5=
EXTT6=
EXTT7=
PLAYORDER=
